<?xml version="1.0" standalone="no"?>
<!DOCTYPE svg PUBLIC "-//W3C//DTD SVG 20010904//EN"
 "http://www.w3.org/TR/2001/REC-SVG-20010904/DTD/svg10.dtd">
<svg version="1.0" xmlns="http://www.w3.org/2000/svg"
 width="260.000000pt" height="260.000000pt" viewBox="0 0 260.000000 260.000000"
 preserveAspectRatio="xMidYMid meet">
<metadata>
Created by potrace 1.11, written by Peter Selinger 2001-2013
</metadata>
<g transform="translate(0.000000,260.000000) scale(0.100000,-0.100000)"
fill="#000000" stroke="none">
<path d="M1188 2158 c-58 -101 -118 -205 -133 -233 -15 -27 -34 -57 -41 -66
-8 -8 -14 -18 -14 -21 0 -3 -45 -83 -101 -179 -56 -96 -114 -196 -129 -224
-15 -27 -159 -277 -320 -555 -161 -278 -309 -535 -330 -572 l-39 -68 1214 0
c1152 0 1214 1 1208 17 -4 10 -33 62 -65 116 -32 54 -58 100 -58 102 0 2 -35
64 -78 137 -77 131 -430 741 -797 1378 -103 179 -192 331 -199 338 -10 11 -33
-22 -118 -170z m141 -211 c12 -21 105 -183 208 -360 102 -177 243 -421 313
-542 69 -121 179 -311 243 -422 64 -112 117 -205 117 -207 0 -2 -409 -4 -910
-4 -918 0 -931 1 -901 34 5 5 20 29 34 54 19 36 162 284 307 535 38 65 93 162
112 195 11 19 44 76 73 125 29 50 103 178 165 285 62 107 126 218 142 245 16
28 36 65 45 83 18 36 22 34 52 -21z"/>
</g>
</svg>
